<svg xmlns="http://www.w3.org/2000/svg" width="1440" height="1024" fill="none" viewBox="0 0 1440 1024"><path fill="#B3D6FF" fill-opacity=".5" d="M1037.45 207.824C1008.8 191.287 1008.8 149.944 1037.45 133.406L1573.63 -176.159C1602.27 -192.696 1638.08 -172.025 1638.08 -138.95L1638.08 480.18C1638.08 513.255 1602.27 533.926 1573.63 517.389L1037.45 207.824Z" opacity=".2"/><path fill="#80BAFF" d="M1083.93 97.5941C1055.29 81.0568 1055.29 39.7137 1083.93 23.1764L1620.12 -286.389C1648.76 -302.926 1684.56 -282.254 1684.56 -249.18L1684.56 369.95C1684.56 403.025 1648.76 423.696 1620.12 407.159L1083.93 97.5941Z" opacity=".4"/><circle cx="-63.5" cy="1149.5" r="283.5" fill="#B3D6FF" opacity=".15"/><circle cx="380.5" cy="-90.5" r="283.5" fill="#B3D6FF" fill-opacity=".5" opacity=".15"/></svg>